<svg xmlns="http://www.w3.org/2000/svg" width="14" height="14" viewBox="0 0 24 24" fill="none"><path d="M12 6.24997L13.19 9.82997L13.53 10.83H14.6H18.38L15.38 13.07L14.52 13.71L14.84 14.71L15.98 18.31L12.91 16.11L12 15.56L11.13 16.18L8.06001 18.38L9.20001 14.78L9.52001 13.78L8.66001 13.14L5.66001 10.9H9.43001H10.51L10.85 9.89997L12 6.24997ZM12 2.36997C11.916 2.36806 11.8337 2.39331 11.7652 2.44195C11.6968 2.4906 11.6458 2.56005 11.62 2.63997L9.38001 9.34998L2.31001 9.40997C2.2269 9.41202 2.1465 9.43991 2.07997 9.48976C2.01345 9.53961 1.96411 9.60895 1.93881 9.68814C1.91352 9.76732 1.91352 9.85243 1.93883 9.93161C1.96413 10.0108 2.01348 10.0801 2.08001 10.13L7.77001 14.33L5.63001 21.07C5.61093 21.1306 5.60657 21.1948 5.61727 21.2575C5.62798 21.3201 5.65344 21.3792 5.69155 21.4301C5.72967 21.4809 5.77934 21.5219 5.83646 21.5497C5.89358 21.5775 5.95649 21.5913 6.02001 21.59C6.10177 21.589 6.18156 21.5647 6.25001 21.52L12 17.41L17.75 21.52C17.8185 21.5647 17.8982 21.589 17.98 21.59C18.0435 21.5913 18.1064 21.5775 18.1636 21.5497C18.2207 21.5219 18.2703 21.4809 18.3085 21.4301C18.3466 21.3792 18.372 21.3201 18.3827 21.2575C18.3934 21.1948 18.3891 21.1306 18.37 21.07L16.23 14.33L21.92 10.13C21.9865 10.0801 22.0359 10.0108 22.0612 9.93161C22.0865 9.85243 22.0865 9.76732 22.0612 9.68814C22.0359 9.60895 21.9866 9.53961 21.92 9.48976C21.8535 9.43991 21.7731 9.41202 21.69 9.40997L14.62 9.34998L12.38 2.63997C12.3542 2.56005 12.3033 2.4906 12.2348 2.44195C12.1663 2.39331 12.084 2.36806 12 2.36997Z" fill="black"></path></svg>