<svg xmlns="http://www.w3.org/2000/svg" width="24" height="24" viewBox="0 0 24 24" fill="red"><path d="M2 5V9.6C2.54535 9.71261 3.03518 10.0099 3.38687 10.4416C3.73857 10.8733 3.93061 11.4131 3.93061 11.97C3.93061 12.5269 3.73857 13.0667 3.38687 13.4984C3.03518 13.9301 2.54535 14.2274 2 14.34V14.34V19C2 19.2652 2.10536 19.5196 2.29289 19.7071C2.48043 19.8946 2.73478 20 3 20H21C21.2652 20 21.5196 19.8946 21.7071 19.7071C21.8946 19.5196 22 19.2652 22 19V14.41C21.4547 14.2974 20.9648 14.0001 20.6131 13.5684C20.2614 13.1367 20.0694 12.5969 20.0694 12.04C20.0694 11.4831 20.2614 10.9433 20.6131 10.5116C20.9648 10.0799 21.4547 9.78261 22 9.67C22 9.67 22 9.67 22 9.67V5C22 4.73478 21.8946 4.48043 21.7071 4.29289C21.5196 4.10536 21.2652 4 21 4H3C2.73478 4 2.48043 4.10536 2.29289 4.29289C2.10536 4.48043 2 4.73478 2 5V5Z" fill-opacity="0.16"></path><path d="M9.63 10.93C10.4584 10.93 11.13 10.2584 11.13 9.42999C11.13 8.60157 10.4584 7.92999 9.63 7.92999C8.80158 7.92999 8.13 8.60157 8.13 9.42999C8.13 10.2584 8.80158 10.93 9.63 10.93Z"></path><path d="M14.51 15.94C15.3384 15.94 16.01 15.2684 16.01 14.44C16.01 13.6116 15.3384 12.94 14.51 12.94C13.6816 12.94 13.01 13.6116 13.01 14.44C13.01 15.2684 13.6816 15.94 14.51 15.94Z"></path><path d="M15.02 9L9.01999 15" stroke-width="1.5" stroke-linecap="round" stroke-linejoin="round"></path></svg>