<svg xmlns="http://www.w3.org/2000/svg" width="24" height="24" viewBox="0 0 24 24" fill="none"><path d="M14.6865 4.2865C14.5029 4.10306 14.2538 4 13.9941 4C13.7345 4 13.4854 4.10306 13.3018 4.2865C13.1182 4.46994 13.015 4.71874 13.015 4.97816C13.015 5.23759 13.1182 5.48639 13.3018 5.66983L18.6748 11.0278H2.97513C2.71651 11.0278 2.46848 11.1304 2.28561 11.3131C2.10274 11.4958 2 11.7436 2 12.002C2 12.2604 2.10274 12.5081 2.28561 12.6908C2.46848 12.8735 2.71651 12.9762 2.97513 12.9762H18.6748L13.3018 18.3341C13.2104 18.4247 13.1379 18.5324 13.0883 18.6512C13.0388 18.7699 13.0134 18.8972 13.0134 19.0258C13.0134 19.1544 13.0388 19.2817 13.0883 19.4005C13.1379 19.5192 13.2104 19.6269 13.3018 19.7175C13.3929 19.8078 13.501 19.8792 13.6198 19.9277C13.7386 19.9762 13.8658 20.0007 13.9941 20C14.1225 20.0007 14.2497 19.9762 14.3685 19.9277C14.4873 19.8792 14.5954 19.8078 14.6865 19.7175L21.7172 12.6937C21.8076 12.6026 21.8791 12.4947 21.9276 12.376C21.9761 12.2573 22.0007 12.1302 22 12.002C21.9964 11.7441 21.8954 11.497 21.7172 11.3103L14.6865 4.2865Z" fill="white"></path></svg>