<svg width="24" height="24" viewBox="0 0 24 24" fill="none" xmlns="http://www.w3.org/2000/svg"><path d="M18.9 21.5001C19.2866 21.5001 19.6 21.1867 19.6 20.8001C19.6 20.4135 19.2866 20.1001 18.9 20.1001C18.5134 20.1001 18.2 20.4135 18.2 20.8001C18.2 21.1867 18.5134 21.5001 18.9 21.5001Z" fill="#001325" fill-opacity="0.92"></path><path d="M15.9 21.5001C16.2866 21.5001 16.6 21.1867 16.6 20.8001C16.6 20.4135 16.2866 20.1001 15.9 20.1001C15.5134 20.1001 15.2 20.4135 15.2 20.8001C15.2 21.1867 15.5134 21.5001 15.9 21.5001Z" fill="#001325" fill-opacity="0.92"></path><path d="M12.9 21.5001C13.2866 21.5001 13.6 21.1867 13.6 20.8001C13.6 20.4135 13.2866 20.1001 12.9 20.1001C12.5134 20.1001 12.2 20.4135 12.2 20.8001C12.2 21.1867 12.5134 21.5001 12.9 21.5001Z" fill="#001325" fill-opacity="0.92"></path><path d="M12 4C12.7 4 13.3 4.2 13.8 4.7C14.3 5.2 14.5 5.9 14.5 6.6V6.7C14.5 7.4 14.3 8.2 13.8 8.7C12.8 9.7 11.2 9.7 10.2 8.7C9.69998 8.2 9.39998 7.5 9.39998 6.8V6.7C9.29998 5.3 10.3 4.1 11.7 4C11.8 4 11.9 4 12 4ZM12 2.5C9.79998 2.5 7.99998 4.3 7.99998 6.5C7.99998 6.6 7.99998 6.6 7.99998 6.7V6.8C7.89998 9 9.59998 10.9 11.8 11C11.9 11 11.9 11 12 11C13.1 11 14.1 10.6 14.9 9.8C15.7 9 16.1 7.9 16 6.8V6.6C16 5.5 15.6 4.4 14.8 3.6C14.1 2.9 13 2.5 12 2.5Z" fill="#001325" fill-opacity="0.92"></path><path d="M9.79999 21.5002H5.79999C5.39999 21.5002 4.99999 21.3002 4.69999 21.0002C4.39999 20.7002 4.29999 20.2002 4.39999 19.8002C4.99999 15.4002 8.99999 12.4002 13.4 13.0002C16.2 13.4002 18.6 15.2002 19.7 17.8002C19.8 18.2002 19.6 18.6002 19.2 18.8002C18.8 18.9002 18.4 18.8002 18.3 18.4002C17 15.1002 13.2 13.4002 9.89999 14.7002C7.69999 15.6002 6.09999 17.6002 5.79999 20.0002H9.79999C10.2 20.0002 10.6 20.3002 10.6 20.8002C10.6 21.3002 10.2 21.5002 9.79999 21.5002Z" fill="#001325" fill-opacity="0.92"></path></svg>