<svg xmlns="http://www.w3.org/2000/svg" width="14" height="14" viewBox="0 0 24 24" fill="none"><path fill-rule="evenodd" clip-rule="evenodd" d="M12 17.42L6.25 21.54C6.1816 21.5921 6.09823 21.6207 6.01227 21.6217C5.9263 21.6227 5.8423 21.596 5.77272 21.5455C5.70314 21.495 5.65169 21.4234 5.62598 21.3413C5.60027 21.2593 5.60168 21.1712 5.63 21.09L7.77 14.35L2.08 10.15C2.01515 10.0984 1.96747 10.0283 1.94325 9.94905C1.91902 9.86979 1.91938 9.78505 1.94429 9.706C1.9692 9.62695 2.01747 9.5573 2.08276 9.50624C2.14805 9.45518 2.22728 9.42511 2.31 9.41999L9.38 9.36999L11.62 2.65999C11.6463 2.57996 11.6972 2.51028 11.7654 2.46088C11.8337 2.41148 11.9158 2.38489 12 2.38489C12.0842 2.38489 12.1663 2.41148 12.2346 2.46088C12.3028 2.51028 12.3537 2.57996 12.38 2.65999L14.62 9.36999L21.69 9.41999C21.7727 9.42511 21.852 9.45518 21.9172 9.50624C21.9825 9.5573 22.0308 9.62695 22.0557 9.706C22.0806 9.78505 22.081 9.86979 22.0568 9.94905C22.0325 10.0283 21.9848 10.0984 21.92 10.15L16.23 14.35L18.37 21.09C18.3983 21.1712 18.3997 21.2593 18.374 21.3413C18.3483 21.4234 18.2969 21.495 18.2273 21.5455C18.1577 21.596 18.0737 21.6227 17.9877 21.6217C17.9018 21.6207 17.8184 21.5921 17.75 21.54L12 17.42Z" fill="black"></path></svg>
