<svg xmlns="http://www.w3.org/2000/svg" width="24" height="24" viewBox="0 0 24 24" fill="none"><circle cx="12" cy="12" r="10" fill="#001325" fill-opacity="0.16"></circle><path d="M8.41258 8.41258C8.10777 8.71739 8.10777 9.21159 8.41258 9.5164L10.8042 11.908L8.22861 14.4836C7.9238 14.7884 7.9238 15.2826 8.22861 15.5874C8.53342 15.8922 9.02762 15.8922 9.33243 15.5874L11.908 13.0118L14.6676 15.7714C14.9724 16.0762 15.4666 16.0762 15.7714 15.7714C16.0762 15.4666 16.0762 14.9724 15.7714 14.6676L13.0118 11.908L15.5874 9.33243C15.8922 9.02762 15.8922 8.53342 15.5874 8.22861C15.2826 7.9238 14.7884 7.9238 14.4836 8.22861L11.908 10.8042L9.5164 8.41258C9.21159 8.10777 8.71739 8.10777 8.41258 8.41258Z" fill="#001325" fill-opacity="0.92"></path></svg>