<svg xmlns="http://www.w3.org/2000/svg" width="30" height="30" viewBox="0 0 24 24" fill="none"><path d="M8.77254 16.0075C8.91263 16.1476 9.1019 16.2274 9.3 16.23C9.49811 16.2274 9.68737 16.1476 9.82747 16.0075C9.96756 15.8674 10.0474 15.6781 10.05 15.48V11.48C10.05 11.2811 9.97099 11.0903 9.83033 10.9497C9.68968 10.809 9.49892 10.73 9.3 10.73C9.10109 10.73 8.91033 10.809 8.76967 10.9497C8.62902 11.0903 8.55 11.2811 8.55 11.48V15.48C8.55259 15.6781 8.63244 15.8674 8.77254 16.0075Z" fill="#001325" fill-opacity="0.36"></path><path d="M11.4725 16.0075C11.6126 16.1476 11.8019 16.2274 12 16.23C12.1981 16.2274 12.3874 16.1476 12.5275 16.0075C12.6676 15.8674 12.7474 15.6781 12.75 15.48V11.48C12.75 11.2811 12.671 11.0903 12.5303 10.9497C12.3897 10.809 12.1989 10.73 12 10.73C11.8011 10.73 11.6103 10.809 11.4697 10.9497C11.329 11.0903 11.25 11.2811 11.25 11.48V15.48C11.2526 15.6781 11.3324 15.8674 11.4725 16.0075Z" fill="#001325" fill-opacity="0.36"></path><path d="M14.7 16.23C14.5019 16.2274 14.3126 16.1476 14.1725 16.0075C14.0324 15.8674 13.9526 15.6781 13.95 15.48V11.48C13.95 11.2811 14.029 11.0903 14.1697 10.9497C14.3103 10.809 14.5011 10.73 14.7 10.73C14.8989 10.73 15.0897 10.809 15.2303 10.9497C15.371 11.0903 15.45 11.2811 15.45 11.48V15.48C15.4474 15.6781 15.3676 15.8674 15.2275 16.0075C15.0874 16.1476 14.8981 16.2274 14.7 16.23Z" fill="#001325" fill-opacity="0.36"></path><path fill-rule="evenodd" clip-rule="evenodd" d="M15.79 6H19.5V5.99C19.6989 5.99 19.8897 6.06902 20.0303 6.20967C20.171 6.35032 20.25 6.54109 20.25 6.74C20.25 6.93891 20.171 7.12968 20.0303 7.27033C19.8897 7.41098 19.6989 7.49 19.5 7.49H18.5V20C18.5 20.2652 18.3946 20.5196 18.2071 20.7071C18.0196 20.8946 17.7652 21 17.5 21H6.5C6.23478 21 5.98043 20.8946 5.79289 20.7071C5.60536 20.5196 5.5 20.2652 5.5 20V7.5H4.5C4.30109 7.5 4.11032 7.42098 3.96967 7.28033C3.82902 7.13968 3.75 6.94891 3.75 6.75C3.75 6.55109 3.82902 6.36032 3.96967 6.21967C4.11032 6.07902 4.30109 6 4.5 6H8.21V4C8.21 3.73478 8.31536 3.48043 8.50289 3.29289C8.69043 3.10536 8.94478 3 9.21 3H14.79C15.0552 3 15.3096 3.10536 15.4971 3.29289C15.6846 3.48043 15.79 3.73478 15.79 4V6ZM14.29 4.5H9.71V6H14.29V4.5ZM7 7.5V19.5H17V7.5H7Z" fill="#001325" fill-opacity="0.36"></path></svg>