
<svg xmlns="http://www.w3.org/2000/svg" width="16" height="16" viewBox="0 0 16 16" fill="none"><path d="M8 3C8.98891 3 9.95561 3.29325 10.7779 3.84265C11.6001 4.39206 12.241 5.17295 12.6194 6.08658C12.9978 7.00021 13.0969 8.00555 12.9039 8.97545C12.711 9.94536 12.2348 10.8363 11.5355 11.5355C10.8363 12.2348 9.94536 12.711 8.97545 12.9039C8.00555 13.0969 7.00022 12.9978 6.08659 12.6194C5.17296 12.241 4.39206 11.6001 3.84265 10.7779C3.29325 9.95561 3 8.98891 3 8C3 6.67392 3.52679 5.40215 4.46447 4.46447C5.40215 3.52678 6.67392 3 8 3ZM8 2C6.81331 2 5.65328 2.35189 4.66658 3.01118C3.67989 3.67047 2.91085 4.60754 2.45673 5.7039C2.0026 6.80026 1.88378 8.00666 2.11529 9.17054C2.3468 10.3344 2.91825 11.4035 3.75736 12.2426C4.59648 13.0818 5.66558 13.6532 6.82946 13.8847C7.99335 14.1162 9.19975 13.9974 10.2961 13.5433C11.3925 13.0892 12.3295 12.3201 12.9888 11.3334C13.6481 10.3467 14 9.18669 14 8C14 6.4087 13.3679 4.88258 12.2426 3.75736C11.1174 2.63214 9.5913 2 8 2Z" fill="#001325" fill-opacity="0.64"></path><path d="M7.43334 5.33333C7.42666 5.22008 7.45414 5.10742 7.51221 5.00995C7.57028 4.91249 7.65627 4.8347 7.75905 4.78665C7.86183 4.73861 7.97667 4.72252 8.0887 4.74047C8.20072 4.75843 8.30478 4.8096 8.38739 4.88735C8.47001 4.96511 8.52739 5.06588 8.55209 5.17661C8.5768 5.28735 8.56769 5.40294 8.52596 5.50844C8.48423 5.61395 8.41178 5.70449 8.31801 5.76836C8.22424 5.83222 8.11346 5.86647 8 5.86667C7.85436 5.87027 7.71317 5.81629 7.60708 5.71644C7.50099 5.61659 7.43856 5.47893 7.43334 5.33333Z" fill="#001325" fill-opacity="0.64"></path><path d="M8 11.0333C7.86793 11.0316 7.74176 10.9784 7.64836 10.885C7.55496 10.7916 7.50173 10.6654 7.5 10.5333V7.86667C7.5 7.73406 7.55268 7.60688 7.64645 7.51311C7.74022 7.41935 7.86739 7.36667 8 7.36667C8.13261 7.36667 8.25979 7.41935 8.35356 7.51311C8.44732 7.60688 8.5 7.73406 8.5 7.86667V10.5333C8.49828 10.6654 8.44504 10.7916 8.35165 10.885C8.25825 10.9784 8.13207 11.0316 8 11.0333Z" fill="#001325" fill-opacity="0.64"></path></svg>