<svg id="visual" viewBox="0 0 1920 1080" width="1920" height="1080" xmlns="http://www.w3.org/2000/svg" xmlns:xlink="http://www.w3.org/1999/xlink" version="1.1"><path d="M0 217L29.2 206.2C58.3 195.3 116.7 173.7 174.8 166.5C233 159.3 291 166.7 349.2 155.8C407.3 145 465.7 116 523.8 112.3C582 108.7 640 130.3 698.2 152C756.3 173.7 814.7 195.3 872.8 195.3C931 195.3 989 173.7 1047.2 152C1105.3 130.3 1163.7 108.7 1221.8 94.3C1280 80 1338 73 1396.2 92.8C1454.3 112.7 1512.7 159.3 1570.8 170.2C1629 181 1687 156 1745.2 134.5C1803.3 113 1861.7 95 1890.8 86L1920 77L1920 0L1890.8 0C1861.7 0 1803.3 0 1745.2 0C1687 0 1629 0 1570.8 0C1512.7 0 1454.3 0 1396.2 0C1338 0 1280 0 1221.8 0C1163.7 0 1105.3 0 1047.2 0C989 0 931 0 872.8 0C814.7 0 756.3 0 698.2 0C640 0 582 0 523.8 0C465.7 0 407.3 0 349.2 0C291 0 233 0 174.8 0C116.7 0 58.3 0 29.2 0L0 0Z" fill="#ff7ca9"></path><path d="M0 336L29.2 321.5C58.3 307 116.7 278 174.8 279.8C233 281.7 291 314.3 349.2 301.8C407.3 289.3 465.7 231.7 523.8 228C582 224.3 640 274.7 698.2 310.7C756.3 346.7 814.7 368.3 872.8 354C931 339.7 989 289.3 1047.2 251.5C1105.3 213.7 1163.7 188.3 1221.8 190C1280 191.7 1338 220.3 1396.2 251C1454.3 281.7 1512.7 314.3 1570.8 312.7C1629 311 1687 275 1745.2 244.3C1803.3 213.7 1861.7 188.3 1890.8 175.7L1920 163L1920 75L1890.8 84C1861.7 93 1803.3 111 1745.2 132.5C1687 154 1629 179 1570.8 168.2C1512.7 157.3 1454.3 110.7 1396.2 90.8C1338 71 1280 78 1221.8 92.3C1163.7 106.7 1105.3 128.3 1047.2 150C989 171.7 931 193.3 872.8 193.3C814.7 193.3 756.3 171.7 698.2 150C640 128.3 582 106.7 523.8 110.3C465.7 114 407.3 143 349.2 153.8C291 164.7 233 157.3 174.8 164.5C116.7 171.7 58.3 193.3 29.2 204.2L0 215Z" fill="#fe5992"></path><path d="M0 800L29.2 774.8C58.3 749.7 116.7 699.3 174.8 670.5C233 641.7 291 634.3 349.2 643.3C407.3 652.3 465.7 677.7 523.8 654.3C582 631 640 559 698.2 564.3C756.3 569.7 814.7 652.3 872.8 650.5C931 648.7 989 562.3 1047.2 513.8C1105.3 465.3 1163.7 454.7 1221.8 440.3C1280 426 1338 408 1396.2 426C1454.3 444 1512.7 498 1570.8 510.5C1629 523 1687 494 1745.2 461.5C1803.3 429 1861.7 393 1890.8 375L1920 357L1920 161L1890.8 173.7C1861.7 186.3 1803.3 211.7 1745.2 242.3C1687 273 1629 309 1570.8 310.7C1512.7 312.3 1454.3 279.7 1396.2 249C1338 218.3 1280 189.7 1221.8 188C1163.7 186.3 1105.3 211.7 1047.2 249.5C989 287.3 931 337.7 872.8 352C814.7 366.3 756.3 344.7 698.2 308.7C640 272.7 582 222.3 523.8 226C465.7 229.7 407.3 287.3 349.2 299.8C291 312.3 233 279.7 174.8 277.8C116.7 276 58.3 305 29.2 319.5L0 334Z" fill="#fc2779"></path><path d="M0 995L29.2 969.7C58.3 944.3 116.7 893.7 174.8 870.2C233 846.7 291 850.3 349.2 859.3C407.3 868.3 465.7 882.7 523.8 906.2C582 929.7 640 962.3 698.2 964.2C756.3 966 814.7 937 872.8 904.5C931 872 989 836 1047.2 834.2C1105.3 832.3 1163.7 864.7 1221.8 871.8C1280 879 1338 861 1396.2 871.8C1454.3 882.7 1512.7 922.3 1570.8 929.7C1629 937 1687 912 1745.2 906.7C1803.3 901.3 1861.7 915.7 1890.8 922.8L1920 930L1920 355L1890.8 373C1861.7 391 1803.3 427 1745.2 459.5C1687 492 1629 521 1570.8 508.5C1512.7 496 1454.3 442 1396.2 424C1338 406 1280 424 1221.8 438.3C1163.7 452.7 1105.3 463.3 1047.2 511.8C989 560.3 931 646.7 872.8 648.5C814.7 650.3 756.3 567.7 698.2 562.3C640 557 582 629 523.8 652.3C465.7 675.7 407.3 650.3 349.2 641.3C291 632.3 233 639.7 174.8 668.5C116.7 697.3 58.3 747.7 29.2 772.8L0 798Z" fill="#dc1f68"></path><path d="M0 1081L29.2 1081C58.3 1081 116.7 1081 174.8 1081C233 1081 291 1081 349.2 1081C407.3 1081 465.7 1081 523.8 1081C582 1081 640 1081 698.2 1081C756.3 1081 814.7 1081 872.8 1081C931 1081 989 1081 1047.2 1081C1105.3 1081 1163.7 1081 1221.8 1081C1280 1081 1338 1081 1396.2 1081C1454.3 1081 1512.7 1081 1570.8 1081C1629 1081 1687 1081 1745.2 1081C1803.3 1081 1861.7 1081 1890.8 1081L1920 1081L1920 928L1890.8 920.8C1861.7 913.7 1803.3 899.3 1745.2 904.7C1687 910 1629 935 1570.8 927.7C1512.7 920.3 1454.3 880.7 1396.2 869.8C1338 859 1280 877 1221.8 869.8C1163.7 862.7 1105.3 830.3 1047.2 832.2C989 834 931 870 872.8 902.5C814.7 935 756.3 964 698.2 962.2C640 960.3 582 927.7 523.8 904.2C465.7 880.7 407.3 866.3 349.2 857.3C291 848.3 233 844.7 174.8 868.2C116.7 891.7 58.3 942.3 29.2 967.7L0 993Z" fill="#bc1858"></path></svg>